<?xml version="1.0" standalone="no"?><svg xmlns="http://www.w3.org/2000/svg" viewBox="0 0 1440 320"><path fill="orange" fill-opacity="1" d="M0,224L40,208C80,192,160,160,240,133.3C320,107,400,85,480,106.7C560,128,640,192,720,224C800,256,880,256,960,229.3C1040,203,1120,149,1200,133.3C1280,117,1360,139,1400,149.3L1440,160L1440,320L1400,320C1360,320,1280,320,1200,320C1120,320,1040,320,960,320C880,320,800,320,720,320C640,320,560,320,480,320C400,320,320,320,240,320C160,320,80,320,40,320L0,320Z" style="--darkreader-inline-fill:#cc8400;" data-darkreader-inline-fill=""></path></svg>